<svg xmlns="http://www.w3.org/2000/svg" width="20" height="20" viewBox="0 0 48 48"><g><path fill="#4285F4" d="M24 9.5c3.54 0 6.7 1.22 9.19 3.23l6.85-6.85C35.64 2.69 30.18 0 24 0 14.82 0 6.73 5.82 2.69 14.09l7.98 6.19C12.13 13.99 17.56 9.5 24 9.5z"/><path fill="#34A853" d="M46.1 24.55c0-1.64-.15-3.22-.42-4.74H24v9.01h12.42c-.54 2.9-2.18 5.36-4.65 7.01l7.19 5.59C43.98 37.13 46.1 31.3 46.1 24.55z"/><path fill="#FBBC05" d="M10.67 28.28c-1.01-2.99-1.01-6.19 0-9.18l-7.98-6.19C.99 17.09 0 20.44 0 24c0 3.56.99 6.91 2.69 10.09l7.98-6.19z"/><path fill="#EA4335" d="M24 48c6.18 0 11.64-2.05 15.54-5.59l-7.19-5.59c-2.01 1.35-4.59 2.15-8.35 2.15-6.44 0-11.87-4.49-13.33-10.59l-7.98 6.19C6.73 42.18 14.82 48 24 48z"/><path fill="none" d="M0 0h48v48H0z"/></g></svg>
